<mxfile host="app.diagrams.net" agent="Mozilla/5.0 (Macintosh; Intel Mac OS X 10_15_7) AppleWebKit/537.36 (KHTML, like Gecko) Chrome/132.0.0.0 Safari/537.36" version="26.0.10">
  <diagram name="Page-1" id="nNu1Zhd733eEw0JM8XhA">
    <mxGraphModel dx="2704" dy="2766" grid="1" gridSize="10" guides="1" tooltips="1" connect="1" arrows="1" fold="1" page="1" pageScale="1" pageWidth="850" pageHeight="1100" math="0" shadow="0">
      <root>
        <mxCell id="0" />
        <mxCell id="1" parent="0" />
        <mxCell id="EWK27wzTpUUaoDkeulak-2" value="Actor" style="shape=umlActor;verticalLabelPosition=bottom;verticalAlign=top;html=1;outlineConnect=0;" vertex="1" parent="1">
          <mxGeometry x="530" y="-1040" width="30" height="60" as="geometry" />
        </mxCell>
        <mxCell id="EWK27wzTpUUaoDkeulak-12" style="edgeStyle=orthogonalEdgeStyle;rounded=0;orthogonalLoop=1;jettySize=auto;html=1;" edge="1" parent="1" source="EWK27wzTpUUaoDkeulak-3" target="EWK27wzTpUUaoDkeulak-11">
          <mxGeometry relative="1" as="geometry" />
        </mxCell>
        <mxCell id="EWK27wzTpUUaoDkeulak-13" style="edgeStyle=orthogonalEdgeStyle;rounded=0;orthogonalLoop=1;jettySize=auto;html=1;" edge="1" parent="1" source="EWK27wzTpUUaoDkeulak-3" target="EWK27wzTpUUaoDkeulak-10">
          <mxGeometry relative="1" as="geometry" />
        </mxCell>
        <mxCell id="EWK27wzTpUUaoDkeulak-3" value="Already have an account?&lt;div&gt;Y/N&lt;/div&gt;" style="rhombus;whiteSpace=wrap;html=1;" vertex="1" parent="1">
          <mxGeometry x="170" y="-840" width="140" height="140" as="geometry" />
        </mxCell>
        <mxCell id="EWK27wzTpUUaoDkeulak-9" style="edgeStyle=orthogonalEdgeStyle;rounded=0;orthogonalLoop=1;jettySize=auto;html=1;entryX=0.5;entryY=0;entryDx=0;entryDy=0;" edge="1" parent="1" source="EWK27wzTpUUaoDkeulak-5" target="EWK27wzTpUUaoDkeulak-3">
          <mxGeometry relative="1" as="geometry" />
        </mxCell>
        <mxCell id="EWK27wzTpUUaoDkeulak-5" value="Web2 Login&lt;br&gt;Social/Email" style="whiteSpace=wrap;html=1;aspect=fixed;" vertex="1" parent="1">
          <mxGeometry x="190" y="-960" width="100" height="100" as="geometry" />
        </mxCell>
        <mxCell id="EWK27wzTpUUaoDkeulak-8" value="" style="edgeStyle=orthogonalEdgeStyle;rounded=0;orthogonalLoop=1;jettySize=auto;html=1;" edge="1" parent="1" source="EWK27wzTpUUaoDkeulak-6" target="EWK27wzTpUUaoDkeulak-5">
          <mxGeometry relative="1" as="geometry" />
        </mxCell>
        <mxCell id="EWK27wzTpUUaoDkeulak-6" value="Start&lt;br&gt;Web2 login" style="rounded=1;whiteSpace=wrap;html=1;" vertex="1" parent="1">
          <mxGeometry x="180" y="-1070" width="120" height="60" as="geometry" />
        </mxCell>
        <mxCell id="EWK27wzTpUUaoDkeulak-26" style="edgeStyle=orthogonalEdgeStyle;rounded=0;orthogonalLoop=1;jettySize=auto;html=1;" edge="1" parent="1" source="EWK27wzTpUUaoDkeulak-10" target="EWK27wzTpUUaoDkeulak-11">
          <mxGeometry relative="1" as="geometry">
            <Array as="points">
              <mxPoint x="490" y="-595" />
            </Array>
          </mxGeometry>
        </mxCell>
        <mxCell id="EWK27wzTpUUaoDkeulak-10" value="Create New Account&lt;div&gt;Create new wallet in DB&lt;/div&gt;" style="whiteSpace=wrap;html=1;aspect=fixed;" vertex="1" parent="1">
          <mxGeometry x="440" y="-820" width="100" height="100" as="geometry" />
        </mxCell>
        <mxCell id="EWK27wzTpUUaoDkeulak-15" value="" style="edgeStyle=orthogonalEdgeStyle;rounded=0;orthogonalLoop=1;jettySize=auto;html=1;" edge="1" parent="1" source="EWK27wzTpUUaoDkeulak-11" target="EWK27wzTpUUaoDkeulak-14">
          <mxGeometry relative="1" as="geometry" />
        </mxCell>
        <mxCell id="EWK27wzTpUUaoDkeulak-11" value="&amp;nbsp;[Process] AI Agent Interprets User Request&amp;nbsp;&lt;br&gt;LangChain: &lt;br&gt;Natural language parsing&amp;nbsp;&lt;br&gt;AgentKit: Generating/sending transactions&amp;nbsp;&amp;nbsp;" style="whiteSpace=wrap;html=1;aspect=fixed;" vertex="1" parent="1">
          <mxGeometry x="165" y="-670" width="150" height="150" as="geometry" />
        </mxCell>
        <mxCell id="EWK27wzTpUUaoDkeulak-23" style="edgeStyle=orthogonalEdgeStyle;rounded=0;orthogonalLoop=1;jettySize=auto;html=1;" edge="1" parent="1" source="EWK27wzTpUUaoDkeulak-14" target="EWK27wzTpUUaoDkeulak-16">
          <mxGeometry relative="1" as="geometry" />
        </mxCell>
        <mxCell id="EWK27wzTpUUaoDkeulak-24" style="edgeStyle=orthogonalEdgeStyle;rounded=0;orthogonalLoop=1;jettySize=auto;html=1;" edge="1" parent="1" source="EWK27wzTpUUaoDkeulak-14" target="EWK27wzTpUUaoDkeulak-17">
          <mxGeometry relative="1" as="geometry" />
        </mxCell>
        <mxCell id="EWK27wzTpUUaoDkeulak-25" style="edgeStyle=orthogonalEdgeStyle;rounded=0;orthogonalLoop=1;jettySize=auto;html=1;" edge="1" parent="1" source="EWK27wzTpUUaoDkeulak-14" target="EWK27wzTpUUaoDkeulak-18">
          <mxGeometry relative="1" as="geometry" />
        </mxCell>
        <mxCell id="EWK27wzTpUUaoDkeulak-14" value="[Decision] What is the user’s request?&lt;div&gt;1. Purchase (buy)&amp;nbsp;&lt;/div&gt;&lt;div&gt;&amp;nbsp;2. Deposit (external→ops)&amp;nbsp;&lt;/div&gt;&lt;div&gt;&amp;nbsp;3. Withdraw (ops→external)  Other&amp;nbsp;&lt;/div&gt;" style="rhombus;whiteSpace=wrap;html=1;" vertex="1" parent="1">
          <mxGeometry x="115" y="-470" width="250" height="240" as="geometry" />
        </mxCell>
        <mxCell id="EWK27wzTpUUaoDkeulak-30" style="edgeStyle=orthogonalEdgeStyle;rounded=0;orthogonalLoop=1;jettySize=auto;html=1;" edge="1" parent="1" source="EWK27wzTpUUaoDkeulak-16" target="EWK27wzTpUUaoDkeulak-19">
          <mxGeometry relative="1" as="geometry" />
        </mxCell>
        <mxCell id="EWK27wzTpUUaoDkeulak-16" value="Generate&amp;nbsp;&amp;nbsp;&lt;div&gt;Purchase Tx &amp;amp;&amp;nbsp; update DB&amp;nbsp; &amp;nbsp;&lt;/div&gt;" style="whiteSpace=wrap;html=1;aspect=fixed;" vertex="1" parent="1">
          <mxGeometry x="190" y="-140" width="100" height="100" as="geometry" />
        </mxCell>
        <mxCell id="EWK27wzTpUUaoDkeulak-31" style="edgeStyle=orthogonalEdgeStyle;rounded=0;orthogonalLoop=1;jettySize=auto;html=1;" edge="1" parent="1" source="EWK27wzTpUUaoDkeulak-17" target="EWK27wzTpUUaoDkeulak-20">
          <mxGeometry relative="1" as="geometry" />
        </mxCell>
        <mxCell id="EWK27wzTpUUaoDkeulak-17" value="Deposit Tx + signature (AgentKit→&lt;div&gt;Server Wallet→&lt;/div&gt;&lt;div&gt;Chain)&amp;nbsp;&lt;/div&gt;" style="whiteSpace=wrap;html=1;aspect=fixed;" vertex="1" parent="1">
          <mxGeometry x="375" y="-140" width="100" height="100" as="geometry" />
        </mxCell>
        <mxCell id="EWK27wzTpUUaoDkeulak-32" style="edgeStyle=orthogonalEdgeStyle;rounded=0;orthogonalLoop=1;jettySize=auto;html=1;" edge="1" parent="1" source="EWK27wzTpUUaoDkeulak-18" target="EWK27wzTpUUaoDkeulak-21">
          <mxGeometry relative="1" as="geometry" />
        </mxCell>
        <mxCell id="EWK27wzTpUUaoDkeulak-18" value="Withdraw Tx +signature (AgentKit→&lt;div&gt;Server Wallet→Chain)&lt;/div&gt;" style="whiteSpace=wrap;html=1;aspect=fixed;" vertex="1" parent="1">
          <mxGeometry x="581" y="-140" width="100" height="100" as="geometry" />
        </mxCell>
        <mxCell id="EWK27wzTpUUaoDkeulak-36" style="edgeStyle=orthogonalEdgeStyle;rounded=0;orthogonalLoop=1;jettySize=auto;html=1;" edge="1" parent="1" source="EWK27wzTpUUaoDkeulak-19" target="EWK27wzTpUUaoDkeulak-27">
          <mxGeometry relative="1" as="geometry" />
        </mxCell>
        <mxCell id="EWK27wzTpUUaoDkeulak-19" value="&amp;nbsp;Update DB/&amp;nbsp;&lt;div&gt;&lt;span style=&quot;background-color: transparent; color: light-dark(rgb(0, 0, 0), rgb(255, 255, 255));&quot;&gt;marketplace (ownership, logs, etc.)&amp;nbsp;&lt;/span&gt;&lt;/div&gt;" style="whiteSpace=wrap;html=1;aspect=fixed;" vertex="1" parent="1">
          <mxGeometry x="190" y="60" width="100" height="100" as="geometry" />
        </mxCell>
        <mxCell id="EWK27wzTpUUaoDkeulak-34" style="edgeStyle=orthogonalEdgeStyle;rounded=0;orthogonalLoop=1;jettySize=auto;html=1;" edge="1" parent="1" source="EWK27wzTpUUaoDkeulak-20" target="EWK27wzTpUUaoDkeulak-27">
          <mxGeometry relative="1" as="geometry">
            <Array as="points">
              <mxPoint x="425" y="340" />
            </Array>
          </mxGeometry>
        </mxCell>
        <mxCell id="EWK27wzTpUUaoDkeulak-20" value="Update DB for deposit (reflect user’s holdings in ops wallet)&amp;nbsp;" style="whiteSpace=wrap;html=1;aspect=fixed;" vertex="1" parent="1">
          <mxGeometry x="375" y="60" width="100" height="100" as="geometry" />
        </mxCell>
        <mxCell id="EWK27wzTpUUaoDkeulak-33" style="edgeStyle=orthogonalEdgeStyle;rounded=0;orthogonalLoop=1;jettySize=auto;html=1;entryX=1;entryY=0.5;entryDx=0;entryDy=0;" edge="1" parent="1" source="EWK27wzTpUUaoDkeulak-21" target="EWK27wzTpUUaoDkeulak-27">
          <mxGeometry relative="1" as="geometry">
            <Array as="points">
              <mxPoint x="630" y="340" />
            </Array>
          </mxGeometry>
        </mxCell>
        <mxCell id="EWK27wzTpUUaoDkeulak-21" value="Update DB for withdrawal (remove or mark ownership)" style="whiteSpace=wrap;html=1;aspect=fixed;" vertex="1" parent="1">
          <mxGeometry x="580" y="60" width="100" height="100" as="geometry" />
        </mxCell>
        <mxCell id="EWK27wzTpUUaoDkeulak-22" value="&lt;span style=&quot;color: rgb(0, 0, 0); font-family: Helvetica; font-size: 12px; font-style: normal; font-variant-ligatures: normal; font-variant-caps: normal; font-weight: 400; letter-spacing: normal; orphans: 2; text-align: center; text-indent: 0px; text-transform: none; widows: 2; word-spacing: 0px; -webkit-text-stroke-width: 0px; white-space: normal; background-color: rgb(251, 251, 251); text-decoration-thickness: initial; text-decoration-style: initial; text-decoration-color: initial; display: inline !important; float: none;&quot;&gt;[Process]&lt;span&gt;&amp;nbsp;&lt;/span&gt;&lt;/span&gt;" style="text;whiteSpace=wrap;html=1;" vertex="1" parent="1">
          <mxGeometry x="395" y="30" width="60" height="40" as="geometry" />
        </mxCell>
        <mxCell id="EWK27wzTpUUaoDkeulak-29" style="edgeStyle=orthogonalEdgeStyle;rounded=0;orthogonalLoop=1;jettySize=auto;html=1;entryX=0;entryY=0.5;entryDx=0;entryDy=0;" edge="1" parent="1" source="EWK27wzTpUUaoDkeulak-27" target="EWK27wzTpUUaoDkeulak-14">
          <mxGeometry relative="1" as="geometry">
            <Array as="points">
              <mxPoint x="50" y="340" />
              <mxPoint x="50" y="-350" />
            </Array>
          </mxGeometry>
        </mxCell>
        <mxCell id="EWK27wzTpUUaoDkeulak-37" style="edgeStyle=orthogonalEdgeStyle;rounded=0;orthogonalLoop=1;jettySize=auto;html=1;" edge="1" parent="1" source="EWK27wzTpUUaoDkeulak-27" target="EWK27wzTpUUaoDkeulak-28">
          <mxGeometry relative="1" as="geometry" />
        </mxCell>
        <mxCell id="EWK27wzTpUUaoDkeulak-27" value="[Decision] More user&lt;div&gt;&amp;nbsp;actions/commands?&lt;/div&gt;" style="rhombus;whiteSpace=wrap;html=1;" vertex="1" parent="1">
          <mxGeometry x="115" y="220" width="250" height="240" as="geometry" />
        </mxCell>
        <mxCell id="EWK27wzTpUUaoDkeulak-28" value="[Process]&amp;nbsp;&lt;div&gt;End Session&lt;/div&gt;" style="whiteSpace=wrap;html=1;aspect=fixed;" vertex="1" parent="1">
          <mxGeometry x="190" y="510" width="100" height="100" as="geometry" />
        </mxCell>
      </root>
    </mxGraphModel>
  </diagram>
</mxfile>
